<svg xmlns="http://www.w3.org/2000/svg" viewBox="0 0 300 300"><defs><style>.cls-1{fill:#e40e20;}.cls-2{fill:#fff;}</style></defs><g id="Capa" data-name="Capa"><g id="Logo"><path class="cls-1" d="M300,150A150,150,0,1,1,1.39,129.58l22.12-22.12L10.44,94.93A150,150,0,0,1,300,150Z"/><path id="R" class="cls-2" d="M231.52,229c0,6.26-4.43,12.13-21.39,12.13s-48.2-17.87-79.7-32.74-51.94-16.73-51.94-16.73C76.24,214.67,68,239,58.14,233.85S54,184.25,54,184.25s-13.73-2.58-12.29-13,14.74-7.7,14.74-7.7c2.22-18.39,7.17-40.95,10.3-48.39s18.07-7.3,22.18,5.22-6.26,48.52-6.26,48.52c57.52-3.52,84.13-23.67,95.47-39.13s15.46-42.85-56.34-42.85c-71.2,0-119.62,41.94-120.44,42.67a148.08,148.08,0,0,1,9-34.65c32.62-25.12,72.89-32.26,83.8-33.45,14.28-1.57,112.5-9.59,112.5,46s-80.22,75.65-80.22,75.65,72.78,28,88.18,33.13S231.52,222.76,231.52,229Z"/></g></g></svg>