<svg xmlns="http://www.w3.org/2000/svg" viewBox="0 0 909.35 300"><defs><style>.cls-1{fill:#e40e20;}.cls-2{fill:#fff;}</style></defs><g id="Capa" data-name="Capa"><g id="Logo"><g id="fmriel"><path d="M376.89,134.52H354v-16.8h22.9V80.16A44.3,44.3,0,0,1,383,57.25a45.81,45.81,0,0,1,16.49-16.49,45.55,45.55,0,0,1,49.78,2.75L438,56a27,27,0,0,0-15.57-4.58,28.68,28.68,0,0,0-28.71,28.71v37.56h22.6v16.8h-22.6V242.33h-16.8Z"/><path d="M615,242.33h-16.8V162.62q0-14.35-9.47-23.06a32.68,32.68,0,0,0-44.43,0q-9.62,8.7-9.62,23.06v79.71h-16.8V162.62q0-14.35-9.46-23.06a32.7,32.7,0,0,0-44.44,0q-9.62,8.7-9.62,23.06v79.71h-16.8V117.42l14.05,11a47,47,0,0,1,34.51-14.35,49.14,49.14,0,0,1,23.21,5.8,44.61,44.61,0,0,1,17.1,15.27q14.67-21.07,40-21.07a46.14,46.14,0,0,1,19.39,4A49.07,49.07,0,0,1,611,143.22a46.34,46.34,0,0,1,4,19.4Z"/><path class="cls-1" d="M701.53,117.11l-7.64,15a28.25,28.25,0,0,0-8.85-1.23q-14.06,0-23.06,9.47a31.65,31.65,0,0,0-9,22.6v79.41h-16.8V117.42l14.05,11.3q14-14.67,34.82-14.66A42.66,42.66,0,0,1,701.53,117.11Z"/><path class="cls-1" d="M718.17,68.55H735V86.88h-16.8Zm0,48.87H735V242.33h-16.8Z"/><path class="cls-1" d="M860.94,202.93l14.66,8.24a65,65,0,0,1-23.82,25.2,63.87,63.87,0,0,1-34.2,9.62q-26.88,0-46.42-19.55T751.61,180q0-27.48,19.55-46.72t46.42-19.24a64.44,64.44,0,0,1,32.22,8.55q15.11,8.55,23.36,21.68L788,219.42a49.82,49.82,0,0,0,55.13,2.75A48.59,48.59,0,0,0,860.94,202.93Zm-84.29,4.58,73-64.74a47.4,47.4,0,0,0-32.06-11.92q-20.77,0-35,14.21t-14.2,35A49,49,0,0,0,776.65,207.51Z"/><path class="cls-1" d="M892.55,242.33V34.65h16.8V242.33Z"/></g><path class="cls-1" d="M300,150A150,150,0,1,1,1.39,129.58l22.12-22.12L10.44,94.93A150,150,0,0,1,300,150Z"/><path id="R" class="cls-2" d="M231.52,229c0,6.26-4.43,12.13-21.39,12.13s-48.2-17.87-79.7-32.74-51.94-16.73-51.94-16.73C76.24,214.67,68,239,58.14,233.85S54,184.25,54,184.25s-13.73-2.58-12.29-13,14.74-7.7,14.74-7.7c2.22-18.39,7.17-40.95,10.3-48.39s18.07-7.3,22.18,5.22-6.26,48.52-6.26,48.52c57.52-3.52,84.13-23.67,95.47-39.13s15.46-42.85-56.34-42.85c-71.2,0-119.62,41.94-120.44,42.67a148.08,148.08,0,0,1,9-34.65c32.62-25.12,72.89-32.26,83.8-33.45,14.28-1.57,112.5-9.59,112.5,46s-80.22,75.65-80.22,75.65,72.78,28,88.18,33.13S231.52,222.76,231.52,229Z"/></g></g></svg>